#!OML:ASF E:\Style6\Style6.ASF
:FULLY-SPECIFIED
:DEGREES
2933
root 0.943963 17.5568 -1.38382 24.7752 5.20155 1.47063
lowerback 14.0533 -2.90786 3.84053
upperback 13.2065 -3.54831 4.26694
thorax 6.33414 -1.67685 2.68857
lowerneck 13.7828 9.55574 -5.23673
upperneck 4.22284 11.6191 -8.56257
head -0.711088 5.86097 -2.40527
rclavicle -6.36111e-015 1.55052e-014
rhumerus 4.09617 -5.01072 -82.2955
rradius 41.6744
rwrist 23.6267
rhand -4.80656 9.38863
rfingers 7.12502
rthumb 20.9793 -19.4967
lclavicle -6.36111e-015 1.55052e-014
lhumerus 22.0057 -23.794 79.9754
lradius 37.2477
lwrist -20.4896
lhand 8.87181 26.7217
lfingers 7.12502
lthumb 34.0555 53.4932
rfemur -49.1259 -6.94802 17.3719
rtibia 35.6851
rfoot -5.16961 -11.8496
rtoes -13.7789
lfemur -49.3582 3.52324 -24.3114
ltibia 35.5875
lfoot -6.46538 -4.02299
ltoes -16.3045
2934
root 0.943517 17.5579 -1.38402 24.746 5.17462 1.52782
lowerback 14.1072 -2.92568 3.77665
upperback 13.2031 -3.57237 4.25933
thorax 6.30479 -1.69379 2.72057
lowerneck 13.7471 9.53006 -5.31647
upperneck 4.23825 11.578 -8.42901
head -0.713273 5.83482 -2.3448
rclavicle -4.77083e-015 6.95746e-014
rhumerus 4.04931 -4.85234 -82.3012
rradius 41.7161
rwrist 23.5464
rhand -4.90821 9.35121
rfingers 7.12502
rthumb 20.8816 -19.545
lclavicle -4.77083e-015 6.95746e-014
lhumerus 21.6662 -23.8677 79.9519
lradius 37.7514
lwrist -20.3908
lhand 8.77787 26.6189
lfingers 7.12502
lthumb 33.9663 53.4101
rfemur -49.082 -6.92721 17.2898
rtibia 35.6758
rfoot -5.18077 -11.8897
rtoes -14.1325
lfemur -49.3015 3.5238 -24.3757
ltibia 35.5747
lfoot -6.4937 -4.02075
ltoes -16.4582
2935
root 0.94249 17.5589 -1.38392 24.7422 5.16351 1.52292
lowerback 14.0987 -2.88548 3.82239
upperback 13.2098 -3.51684 4.24272
thorax 6.31149 -1.66143 2.67214
lowerneck 13.7425 9.4089 -5.16816
upperneck 4.20939 11.4416 -8.39872
head -0.719886 5.76982 -2.35298
rclavicle -7.95139e-015 -8.74653e-015
rhumerus 3.9845 -5.02569 -82.3585
rradius 41.7679
rwrist 23.5659
rhand -4.8771 9.42585
rfingers 7.12502
rthumb 20.9115 -19.467
lclavicle -7.95139e-015 -8.74653e-015
lhumerus 21.4358 -24.1852 79.8665
lradius 38.1874
lwrist -20.2186
lhand 8.69247 26.5912
lfingers 7.12502
lthumb 33.8852 53.4004
rfemur -49.0704 -6.89846 17.2889
rtibia 35.6636
rfoot -5.20447 -11.9443
rtoes -13.9197
lfemur -49.2876 3.56815 -24.3893
ltibia 35.5533
lfoot -6.52407 -4.05512
ltoes -16.7675
2936
root 0.942207 17.5596 -1.38277 24.7523 5.2091 1.54901
lowerback 14.2076 -3.17574 3.51711
upperback 13.1463 -3.91432 4.43852
thorax 6.22915 -1.89622 3.09185
lowerneck 13.815 9.74793 -6.08354
upperneck 4.02802 11.7193 -8.37195
head -0.835212 5.90546 -2.22641
rclavicle 1.82882e-014 -1.82882e-014
rhumerus 4.08719 -3.85384 -82.1939
rradius 41.7563
rwrist 23.3554
rhand -4.72063 9.44681
rfingers 7.12502
rthumb 21.0618 -19.4294
lclavicle 1.82882e-014 -1.82882e-014
lhumerus 20.7361 -23.139 80.2924
lradius 38.5472
lwrist -20.3595
lhand 8.54524 26.5226
lfingers 7.12502
lthumb 33.7453 53.3625
rfemur -49.0595 -6.93432 17.2752
rtibia 35.6603
rfoot -5.26139 -11.9763
rtoes -13.626
lfemur -49.2723 3.55356 -24.4195
ltibia 35.5077
lfoot -6.51887 -4.09993
ltoes -16.9867
2937
root 0.940821 17.5601 -1.38121 24.7534 5.28081 1.56499
lowerback 14.176 -3.18829 3.55833
upperback 13.1249 -3.92772 4.44582
thorax 6.22049 -1.89968 3.0765
lowerneck 13.9646 9.64797 -5.93158
upperneck 3.94822 11.5893 -8.40617
head -0.880022 5.85049 -2.26741
rclavicle -6.36111e-015 -3.4191e-014
rhumerus 3.99717 -3.85807 -82.196
rradius 41.7987
rwrist 23.3008
rhand -4.63882 9.40417
rfingers 7.12502
rthumb 21.1404 -19.4633
lclavicle -6.36111e-015 -3.4191e-014
lhumerus 20.3904 -23.2506 80.3529
lradius 38.93
lwrist -20.418
lhand 8.48537 26.4754
lfingers 7.12502
lthumb 33.6884 53.3278
rfemur -49.0295 -6.94118 17.2571
rtibia 35.6492
rfoot -5.32327 -12.0252
rtoes -13.6002
lfemur -49.2541 3.5126 -24.4117
ltibia 35.4708
lfoot -6.46778 -4.12039
ltoes -16.7893
2938
root 0.940382 17.5623 -1.37943 24.7324 5.25836 1.60314
lowerback 14.2282 -3.27685 3.43334
upperback 13.1214 -4.05119 4.49269
thorax 6.20577 -1.97426 3.20982
lowerneck 13.9713 9.70216 -6.13505
upperneck 3.8986 11.6226 -8.48789
head -0.902879 5.86929 -2.26624
rclavicle 1.59028e-015 1.47101e-014
rhumerus 4.03067 -3.42421 -82.1469
rradius 41.8153
rwrist 23.2324
rhand -4.60722 9.30145
rfingers 7.12502
rthumb 21.1708 -19.5626
lclavicle 1.59028e-015 1.47101e-014
lhumerus 19.9432 -22.9184 80.5178
lradius 39.4186
lwrist -20.4694
lhand 8.61594 26.5498
lfingers 7.12502
lthumb 33.8125 53.375
rfemur -48.9943 -6.93927 17.2127
rtibia 35.6413
rfoot -5.26086 -12.0529
rtoes -13.8113
lfemur -49.1906 3.49086 -24.4298
ltibia 35.4433
lfoot -6.42705 -4.11862
ltoes -16.1859
2939
root 0.939955 17.5627 -1.37987 24.7024 5.20918 1.65082
lowerback 14.2989 -3.32167 3.32179
upperback 13.1203 -4.11494 4.51404
thorax 6.17887 -2.01659 3.30423
lowerneck 13.9113 9.70267 -6.12287
upperneck 3.99605 11.6384 -8.64251
head -0.8499 5.87486 -2.31088
rclavicle -1.59028e-015 3.57812e-014
rhumerus 4.06333 -3.139 -82.1171
rradius 41.7872
rwrist 23.222
rhand -4.68872 9.22691
rfingers 7.12502
rthumb 21.0925 -19.6459
lclavicle -1.59028e-015 3.57812e-014
lhumerus 19.5925 -22.8546 80.5446
lradius 39.885
lwrist -20.1894
lhand 8.68125 26.6451
lfingers 7.12502
lthumb 33.8745 53.4566
rfemur -48.9551 -6.92766 17.1428
rtibia 35.6247
rfoot -5.30071 -12.0002
rtoes -12.9901
lfemur -49.1472 3.50164 -24.4876
ltibia 35.4412
lfoot -6.42536 -4.12411
ltoes -15.95
2940
root 0.93862 17.5615 -1.38046 24.7047 5.18367 1.60006
lowerback 14.3438 -3.34728 3.31199
upperback 13.0946 -4.14652 4.56926
thorax 6.13336 -2.03684 3.37445
lowerneck 13.8415 9.68268 -6.13903
upperneck 4.12574 11.6275 -8.72082
head -0.79126 5.86306 -2.32332
rclavicle 1.11319e-014 -5.08889e-014
rhumerus 4.02965 -2.97494 -82.0868
rradius 41.8309
rwrist 23.2641
rhand -4.68498 9.17714
rfingers 7.12502
rthumb 21.0961 -19.6953
lclavicle 1.11319e-014 -5.08889e-014
lhumerus 19.2478 -22.763 80.6451
lradius 40.1948
lwrist -20.0671
lhand 8.63111 26.5673
lfingers 7.12502
lthumb 33.8269 53.3893
rfemur -48.9651 -6.90797 17.2059
rtibia 35.6086
rfoot -5.27551 -11.9671
rtoes -12.9782
lfemur -49.1671 3.52374 -24.4299
ltibia 35.4539
lfoot -6.44612 -4.09579
ltoes -16.0207
2941
root 0.937113 17.5612 -1.38085 24.7137 5.17725 1.52461
lowerback 14.288 -3.2168 3.4745
upperback 13.0933 -3.96616 4.54086
thorax 6.14053 -1.93217 3.23448
lowerneck 13.7543 9.43712 -5.63178
upperneck 4.30873 11.4108 -8.74797
head -0.693284 5.75178 -2.38835
rclavicle -1.27222e-014 7.63333e-014
rhumerus 3.90189 -3.45362 -82.131
rradius 41.8978
rwrist 23.3761
rhand -4.66372 9.27918
rfingers 7.12502
rthumb 21.1165 -19.5909
lclavicle -1.27222e-014 7.63333e-014
lhumerus 19.1004 -23.3134 80.511
lradius 40.5175
lwrist -19.8822
lhand 8.57137 26.4596
lfingers 7.12502
lthumb 33.7701 53.2941
rfemur -48.986 -6.86835 17.294
rtibia 35.5989
rfoot -5.24071 -11.9719
rtoes -13.449
lfemur -49.1981 3.5422 -24.339
ltibia 35.4743
lfoot -6.43954 -4.08568
ltoes -16.0989
2942
root 0.935021 17.5605 -1.38115 24.7224 5.17303 1.50079
lowerback 14.3389 -3.28269 3.42808
upperback 13.1161 -4.05502 4.59362
thorax 6.15116 -1.98354 3.32734
lowerneck 13.5677 9.49273 -5.9651
upperneck 4.28214 11.4517 -8.62574
head -0.694204 5.76268 -2.28791
rclavicle 4.77083e-015 -2.18663e-014
rhumerus 4.02542 -3.11917 -82.0879
rradius 41.8677
rwrist 23.3193
rhand -4.74241 9.35618
rfingers 7.12502
rthumb 21.0409 -19.5224
lclavicle 4.77083e-015 -2.18663e-014
lhumerus 18.8559 -23.0146 80.5745
lradius 40.8175
lwrist -19.8893
lhand 8.58062 26.3554
lfingers 7.12502
lthumb 33.7789 53.188
rfemur -49.0017 -6.78555 17.288
rtibia 35.6081
rfoot -5.28293 -12.021
rtoes -13.3529
lfemur -49.2243 3.56088 -24.3116
ltibia 35.4837
lfoot -6.43629 -4.10188
ltoes -16.1746
